<svg xmlns='http://www.w3.org/2000/svg' xmlns:xlink='http://www.w3.org/1999/xlink' viewBox="0 0 45.072 50.400000000000006"><path transform="translate(-2.16 50.400000000000006)" d="M4.82-25.20L4.82-25.20Q4.82-20.52 6.41-16.42Q7.99-12.31 10.69-9.25Q13.39-6.19 16.99-4.43Q20.59-2.66 24.70-2.66L24.70-2.66L24.70 0Q20.02 0 15.91-1.98Q11.81-3.96 8.75-7.38Q5.69-10.80 3.92-15.41Q2.16-20.02 2.16-25.20L2.16-25.20Q2.16-30.38 3.92-34.99Q5.69-39.60 8.75-43.02Q11.81-46.44 15.91-48.42Q20.02-50.40 24.70-50.40L24.70-50.40L24.70-47.74Q20.59-47.74 16.99-45.97Q13.39-44.21 10.69-41.15Q7.99-38.09 6.41-33.98Q4.82-29.88 4.82-25.20ZM22.75-44.86L22.75-44.86L22.75-5.62Q21.60-5.98 20.59-6.52Q19.58-7.06 18.58-7.63L18.58-7.63L18.58-23.47L12.24-23.47Q12.46-21.24 13.32-19.19Q14.18-17.14 15.62-15.26L15.62-15.26L12.60-12.74Q10.37-15.34 9.14-18.50Q7.92-21.67 7.92-25.27L7.92-25.27Q7.92-28.51 9.00-31.54Q10.08-34.56 12.06-37.08Q14.04-39.60 16.78-41.62Q19.51-43.63 22.75-44.86ZM12.17-27.00L18.58-27.00L18.58-38.30Q15.91-36.07 14.22-33.19Q12.53-30.31 12.17-27.00L12.17-27.00ZM24.70-47.74L24.70-50.40Q29.38-50.40 33.48-48.42Q37.58-46.44 40.64-43.02Q43.70-39.60 45.47-34.99Q47.23-30.38 47.23-25.20L47.23-25.20Q47.23-20.02 45.47-15.41Q43.70-10.80 40.64-7.38Q37.58-3.96 33.48-1.98Q29.38 0 24.70 0L24.70 0L24.70-2.66Q28.80-2.66 32.44-4.43Q36.07-6.19 38.77-9.25Q41.47-12.31 43.02-16.42Q44.57-20.52 44.57-25.20L44.57-25.20Q44.57-29.88 43.02-33.98Q41.47-38.09 38.77-41.15Q36.07-44.21 32.44-45.97Q28.80-47.74 24.70-47.74L24.70-47.74ZM26.64-5.62L26.64-5.62L26.64-44.86Q29.88-43.63 32.62-41.65Q35.35-39.67 37.33-37.12Q39.31-34.56 40.39-31.54Q41.47-28.51 41.47-25.20L41.47-25.20Q41.47-21.96 40.39-18.94Q39.31-15.91 37.33-13.39Q35.35-10.87 32.62-8.86Q29.88-6.84 26.64-5.62ZM30.74-38.23L30.74-12.17Q33.84-14.69 35.57-18.07Q37.30-21.46 37.30-25.20L37.30-25.20Q37.30-29.02 35.57-32.36Q33.84-35.71 30.74-38.23L30.74-38.23Z"/></svg>